<?xml version="1.0" encoding="utf-8"?>
<!-- Generator: Adobe Illustrator 19.2.0, SVG Export Plug-In . SVG Version: 6.00 Build 0)  -->
<svg version="1.1" id="レイヤー_1" xmlns="http://www.w3.org/2000/svg" xmlns:xlink="http://www.w3.org/1999/xlink" x="0px"
	 y="0px" viewBox="0 0 301.8 381.4" style="enable-background:new 0 0 301.8 381.4;" xml:space="preserve">
<style type="text/css">
	.st0{fill:#B264A2;}
	.st1{fill:#5EB954;}
	.st2{fill:#FFFFFF;}
</style>
<polygon class="st0" points="278.7,47.1 278.7,287.7 46.4,287.7 28.5,306.1 298.3,306.1 298.3,26.8 "/>
<path class="st1" d="M166.8,333.1V332l-3.2-3.1l-3,2.9h-3.1v-13.5l2.6-2.5h-2.8h-4.2v16h-9.7v1.5h9.2c-0.7,9.5-5.5,23-11.5,32.7
	l0.4,0.3c5-4.9,9-12.4,11.6-18.1v33.2h4.4v-48.1h9.3V333.1z"/>
<path class="st1" d="M203.3,366.9h-13.7v-5.7h12v-1.4l-3.2-3.1l-3,2.9h-5.8v-6.2c2.4-0.4,4.5-1,6.3-1.8l0.3-0.1l-2.6-3l-0.2,0.2
	c-1.8,1.4-4,2.4-6.7,3.2c-2.8,0.8-6.1,1.3-10.1,1.8l0,0.5c1.3,0.1,2.5,0.1,3.7,0.1c1.7,0,3.4-0.1,4.9-0.2v5.6H173v1.5h12.3v5.7
	h-20.1v1.5h20.1v8.2h-4.8l5,4.8h4.3v-13h19.9V367l-3.2-3.1L203.3,366.9z"/>
<polygon class="st1" points="165.1,350.4 165.1,350.4 165.1,350.4 "/>
<path class="st1" d="M200.4,347.7H213v-1.4l-3.2-3.1l-3,2.9H206V321h-4.2h-2.8l2.6,2.5v5.1h-4.8l-2.6-2.5v2.7v1.3h7.3v7.2h-4.8
	l-2.6-2.5v2.7v1.3h7.3v7.5h-9v-14.3v-0.6v-0.4v-0.2h-6.9v-7.1h8.8v-1.4l-3.2-3.1l-3,2.9h-2.6v-6.5h-3.8v15.9h0v0.4v0.2h6.9v14.1
	h-3.2v-12.2h-3.8v12.2h-9.2v-7.5h7.3v-1.3v-2.7l-2.6,2.5h-4.7v-7.2h7.3v-1.3V326l-2.6,2.5h-4.7v-5.1l2.6-2.5h-2.8h-4.2v25.3h-2.2
	c-0.9-2.4-3.4-5.4-7.5-7.3l-0.3,0.4c2.3,2.6,3.3,4.7,3.8,6.5c0.3,0.9,0.4,1.6,0.6,2.2c0.1,0.6,0.3,1.2,0.6,1.6
	c0.3,0.5,0.9,0.8,1.5,0.8c0.2,0,0.3,0,0.5-0.1c0.4-0.1,0.7-0.4,0.9-0.8c0.2-0.4,0.3-0.8,0.3-1.3c0-0.2,0-0.3,0-0.5h7.7
	c-2,4.8-6.5,9.7-13.3,13.4l0.2,0.5c4.2-0.8,7.9-2.8,11-5.3c3-2.5,5.5-5.5,7.3-8.5h16c1.8,3,4.2,6.1,7.3,8.5c3.1,2.5,6.8,4.4,11,5.3
	l0.2-0.5C206.9,357.5,202.4,352.5,200.4,347.7"/>
<path class="st1" d="M254.8,354.8l-0.3-0.4c-3.5,2.1-6.6,3.9-9.6,5.3v-21.2h9.1v-1.4l-3.2-3.1l-3,2.9H245v-21.3h-4.4V337h-9.9v1.5
	h9.9v23.2c-2.7,1.1-5.3,1.8-8,2.3l-0.3,0.1l1.3,3.8l0.2-0.1C241,365.2,249.2,361.1,254.8,354.8"/>
<path class="st1" d="M282.3,365.4c6.9-7.9,10.7-17.4,13.1-28.3l0,0V336l-3.2-3.1l-3,2.9h-24.8c0.2-4.3,0.3-8.9,0.3-13.7h30.7v-1.4
	l-3.2-3.1l-3,2.9h-30.3v1.3l0,0c0,0,0,0.2,0,0.5c0,1.1,0.1,3.6,0.1,7.2c0,1.8,0,4-0.1,6.3h-0.1v1.5h0c-0.3,6.7-0.9,14.8-2.4,22.3
	c-1.5,7.6-3.9,14.6-7.6,19.1l0.4,0.3c5-5.2,8.5-11.2,10.9-18.1c2.3-6.8,3.6-14.6,4.1-23.6h24.8c-0.9,7.8-3.7,16.5-9.3,24.7
	c-3.4-5-6-10.8-7.7-17.9l-0.1-0.3l-4.8,1.7l0.1,0.2c1.8,6.7,4.7,13.7,9.8,19.9c-4.1,5.1-9.4,10-16.2,14.3l0.2,0.4
	c7.6-3.4,13.6-7.4,18.3-12c5.2,5.4,12.4,9.8,22,12.6l0.2-0.4C293.7,376,287.3,371.3,282.3,365.4"/>
<path class="st1" d="M238.1,230.6c-7.2,0-13.1,7.9-13.1,17.7h0c0,0.3,0,0.5,0,0.8c0.3,9.5,6.1,16.9,13.1,16.9
	c7.2,0,13.1-7.9,13.1-17.7C251.2,238.5,245.3,230.6,238.1,230.6"/>
<polygon class="st1" points="200.8,253.3 200.8,220.5 176.6,253.3 "/>
<path class="st1" d="M0,279.3h269.7V0L0,279.3z M214.7,255.2h-7.2v11.4h-6.7v-11.4h-28l34.7-47v45.1h7.2V255.2z M238.6,267.9
	c-10.3,0-19.2-7.4-19.8-20.6c-0.7-15.1,0.8-23.1,3.7-28.9c3.1-6.3,9.1-10.3,15.8-10.5c8.9-0.2,16.5,6.1,18,14.8l-1.9,0.3
	c-1.1-6.6-6.3-11.7-12.7-12.9c-10.8-1.3-17.2,10-16.5,24.1v0c3.5-3.5,8.2-5.6,13.5-5.6c10.7,0,19.3,8.8,19.3,19.6
	C258,259.1,249.3,267.9,238.6,267.9"/>
<path class="st2" d="M207.5,208.2l-34.7,47h28v11.4h6.7v-11.4h7.2v-1.9h-7.2V208.2z M200.8,253.3h-24.2l24.2-32.7V253.3z"/>
<path class="st2" d="M238.6,228.6c-5.3,0-10,2.1-13.5,5.6v0c-0.7-14.1,5.8-25.4,16.5-24.1c6.4,1.2,11.6,6.3,12.7,12.9l1.9-0.3
	c-1.4-8.6-9.1-15-18-14.8c-6.6,0.2-12.6,4.2-15.8,10.5c-2.9,5.9-4.4,13.8-3.7,28.9c0.6,13.2,9.5,20.6,19.8,20.6
	c10.7,0,19.3-8.8,19.3-19.6C258,237.4,249.3,228.6,238.6,228.6 M238.1,265.9c-7,0-12.7-7.4-13.1-16.9c0-0.3,0-0.6,0-0.8h0
	c0-9.8,5.9-17.7,13.1-17.7c7.2,0,13.1,7.9,13.1,17.7C251.2,258,245.3,265.9,238.1,265.9"/>
</svg>
